<?xml version="1.0" encoding="UTF-8"?>
<svg xmlns="http://www.w3.org/2000/svg" xmlns:xlink="http://www.w3.org/1999/xlink" width="3000" height="2000" viewBox="0 0 3000 2000">
<defs>
<clipPath id="clip-0">

</clipPath>
<clipPath id="clip-1">
<path clip-rule="nonzero" d="M 0 679 L 3000 679 L 3000 1993.453125 L 0 1993.453125 Z M 0 679 "/>
</clipPath>
<clipPath id="clip-2">
<path clip-rule="nonzero" d="M 2503 82 L 2835 82 L 2835 411 L 2503 411 Z M 2503 82 "/>
</clipPath>
<clipPath id="clip-3">
<path clip-rule="evenodd" d="M 2686.671875 82.46875 C 2787.519531 82.46875 2869.398438 157.078125 2869.398438 248.988281 C 2869.398438 340.890625 2787.519531 415.5 2686.671875 415.5 C 2585.820312 415.5 2503.941406 340.890625 2503.941406 248.988281 C 2503.941406 157.078125 2585.820312 82.46875 2686.671875 82.46875 Z M 2686.671875 82.46875 "/>
</clipPath>
</defs>
<path fill-rule="evenodd" fill="rgb(8.691406%, 66.796875%, 100%)" fill-opacity="1" d="M 3136.929688 -47.28125 L -41.515625 -47.28125 L -41.515625 1993.453125 L 3136.929688 1993.453125 L 3136.929688 -47.28125 "/>
<g clip-path="url(#clip-0)">
<path fill-rule="evenodd" fill="rgb(81.639099%, 92.381287%, 95.3125%)" fill-opacity="1" d="M -6.304688 684.039062 C -47.3125 668.441406 9.257812 627.550781 60.433594 626.191406 C 127.8125 624.410156 125.382812 671.851562 125.382812 671.851562 C 125.382812 671.851562 118.820312 656.550781 151.414062 657.320312 C 186.53125 658.160156 183.730469 674.011719 183.730469 674.011719 C 183.730469 674.011719 148.984375 506 412.847656 517.398438 C 495.078125 520.960938 499.796875 622.140625 499.796875 622.140625 C 499.796875 622.140625 555.066406 602.601562 572.738281 613.488281 C 606.78125 634.480469 597.019531 652.421875 597.050781 652.390625 C 628.761719 630.148438 652.96875 661.039062 652.96875 661.039062 C 652.96875 661.039062 649.636719 646.621094 650.539062 639.429688 C 653.109375 618.851562 665.738281 599.269531 684.574219 587.558594 C 786.695312 524.078125 876.648438 607.011719 876.648438 607.011719 C 876.648438 607.011719 883.414062 583.660156 910.191406 581.101562 C 938.535156 578.398438 949.585938 600.53125 949.585938 600.53125 C 949.585938 600.53125 862.917969 453.191406 1122.679688 459.128906 C 1231.96875 461.621094 1238.910156 568.109375 1238.910156 568.109375 C 1238.910156 568.109375 1315.640625 538.589844 1336.160156 565.949219 C 1342.488281 574.398438 1355.609375 576.761719 1355.609375 576.761719 C 1355.609375 576.761719 1318.238281 406.199219 1349.078125 329.441406 C 1395.929688 212.820312 1575.878906 196.089844 1694.890625 222.539062 C 1863.28125 259.960938 1844.300781 572.429688 1844.300781 572.429688 C 1844.300781 572.429688 1869.308594 537.488281 1918.171875 539.710938 C 1971.378906 542.128906 1951.539062 580.519531 1951.539062 580.519531 C 1951.539062 580.519531 1975.109375 544.109375 2002.789062 543.761719 C 2055.351562 543.089844 2060.679688 587.558594 2060.679688 587.558594 C 2060.679688 587.558594 2099.429688 496.351562 2140.910156 492.46875 C 2219.308594 485.128906 2247.890625 552.980469 2247.890625 552.980469 C 2247.890625 552.980469 2250.398438 516.839844 2299.789062 519.691406 C 2311.828125 520.378906 2325.691406 542.179688 2325.691406 542.179688 C 2325.691406 542.179688 2343.5 330.980469 2459.410156 343.351562 C 2668.261719 365.640625 2523.191406 482.460938 2523.191406 482.460938 C 2523.191406 482.460938 2553.289062 450.570312 2598.710938 473.839844 C 2608.929688 479.070312 2597.238281 512.03125 2597.238281 512.03125 C 2597.238281 512.03125 2691.738281 439.058594 2731.710938 453.570312 C 2881.300781 507.859375 2841.101562 592.960938 2841.101562 592.960938 C 2841.101562 592.960938 2847.179688 557.738281 2885.148438 578.328125 C 2914.089844 594.03125 2904.339844 619.980469 2904.339844 619.980469 C 2904.339844 619.980469 2918.109375 604.851562 2926.21875 598.371094 C 2981.820312 553.890625 3100.488281 541.398438 3147.460938 607.011719 C 3170.921875 639.78125 3122.578125 633.960938 3113.429688 650.230469 C 3106.550781 662.460938 3157.191406 663.199219 3157.191406 663.199219 C 3157.191406 663.199219 3150.078125 671.519531 3147.460938 676.171875 C 3108.371094 745.660156 3107.949219 809.378906 3128.011719 885.800781 C 3139.328125 928.929688 3162 969.859375 3171.78125 1013.304688 C 3200.609375 1141.472656 3211.390625 1271.992188 3242.28125 1400.148438 C 3253.179688 1445.347656 3232.351562 1494.496094 3244.710938 1538.460938 C 3259.601562 1591.386719 3269.730469 1644.636719 3249.578125 1698.386719 C 3117.871094 2049.613281 2699.738281 2140.0625 2323.261719 2182.480469 C 1805.699219 2240.796875 1291.121094 2278.105469 769.671875 2236.511719 C 602.714844 2223.191406 415.347656 2223.433594 254.238281 2178.160156 C 190.535156 2160.257812 135.191406 2130.054688 74.324219 2106.839844 C 21.558594 2086.71875 -31.820312 2070.210938 -73.722656 2032.964844 C -252.222656 1874.300781 -118.8125 1638.292969 -98.296875 1449.855469 C -84.765625 1325.570312 -93.433594 1200.554688 -93.433594 1075.980469 C -93.433594 1024.710938 -76.433594 715.210938 -6.304688 684.039062 "/>
</g>
<g clip-path="url(#clip-1)">
<path fill-rule="evenodd" fill="rgb(89.0625%, 96.09375%, 98.242188%)" fill-opacity="1" d="M -67.414062 920.238281 C -76.019531 924.390625 -65.019531 929.261719 -65.019531 922.359375 C -65.019531 889.640625 12.519531 856.96875 61.8125 854.289062 C 184.1875 847.640625 255.65625 903.21875 255.65625 903.21875 C 255.65625 903.21875 229.421875 833.609375 349.546875 837.25 C 390.921875 838.5 404.027344 892.578125 404.027344 892.578125 C 404.027344 892.578125 429.113281 858.121094 501.433594 857.230469 C 535.175781 856.820312 571.542969 884.070312 571.542969 884.070312 C 571.542969 884.070312 651.175781 829.28125 698.378906 833.019531 C 785.015625 839.878906 815.640625 905.351562 815.640625 905.351562 C 815.640625 905.351562 833.898438 858.671875 841.964844 847.910156 C 896.191406 775.609375 980.902344 732.570312 1078.878906 724.53125 C 1201.199219 714.5 1356.480469 818.128906 1356.480469 818.128906 C 1356.480469 818.128906 1463.328125 745.691406 1526.390625 773.460938 C 1558.738281 787.699219 1576.640625 854.289062 1576.640625 854.289062 C 1576.640625 854.289062 1599.320312 834.859375 1622.53125 854.289062 C 1635.679688 865.289062 1634.078125 888.328125 1634.078125 888.328125 C 1634.078125 888.328125 1705.648438 799.421875 1860.570312 799.691406 C 2088.601562 800.089844 2091.160156 911.730469 2091.160156 911.730469 C 2091.160156 911.730469 2103.300781 867.160156 2145.851562 863.628906 C 2224 857.140625 2249.101562 898.960938 2249.101562 898.960938 C 2249.101562 898.960938 2263.460938 816.75 2296.96875 781.96875 C 2361.609375 714.859375 2463.191406 674.558594 2563.78125 679.820312 C 2649.429688 684.300781 2684.539062 746.941406 2691.828125 818.128906 C 2695.011719 849.269531 2655.929688 913.851562 2655.929688 913.851562 C 2655.929688 913.851562 2708.078125 844.039062 2758.828125 862.800781 C 2791.851562 875.011719 2775.578125 918.109375 2775.578125 918.109375 C 2775.578125 918.109375 2797.210938 909.648438 2809.238281 918.921875 C 2825.410156 931.378906 2821.050781 945.761719 2821.050781 945.761719 C 2821.050781 945.761719 2825.390625 931.390625 2856.949219 915.980469 C 2880.199219 904.628906 3096.671875 891.210938 3151.941406 946.46875 C 3241.839844 1036.375 3260.53125 1583.332031 3270.949219 1694.535156 C 3279.578125 1786.582031 3279.890625 1879.207031 3290.101562 1971.070312 C 3301.699219 2075.484375 3348.511719 2219.898438 3295.601562 2321.792969 C 3242 2425.035156 3055.371094 2436.199219 2947.890625 2449.691406 C 2657.449219 2486.136719 2362.820312 2508.804688 2069.621094 2515.632812 C 1550.878906 2527.714844 1031.640625 2540.554688 513.996094 2573.421875 C 305.472656 2586.660156 -104.96875 2602.191406 -282.789062 2466.707031 C -394.230469 2381.800781 -314.277344 2123.882812 -306.722656 2002.980469 C -289.472656 1726.984375 -301.003906 1448.425781 -268.433594 1173.371094 C -261.886719 1118.085938 -259.691406 931.359375 -194.246094 892.578125 C -160.726562 872.71875 -100.855469 920.238281 -67.414062 920.238281 "/>
</g>
<path fill-rule="evenodd" fill="rgb(89.451599%, 42.088318%, 2.999878%)" fill-opacity="1" d="M 2686.671875 82.46875 C 2787.519531 82.46875 2869.398438 157.078125 2869.398438 248.988281 C 2869.398438 340.890625 2787.519531 415.5 2686.671875 415.5 C 2585.820312 415.5 2503.941406 340.890625 2503.941406 248.988281 C 2503.941406 157.078125 2585.820312 82.46875 2686.671875 82.46875 "/>
<g clip-path="url(#clip-2)">
<g clip-path="url(#clip-3)">
<path fill-rule="evenodd" fill="rgb(93.75%, 49.388123%, 5.899048%)" fill-opacity="1" d="M 2651.480469 77.261719 C 2752.328125 77.261719 2834.210938 151.878906 2834.210938 243.78125 C 2834.210938 335.691406 2752.328125 410.300781 2651.480469 410.300781 C 2550.628906 410.300781 2468.75 335.691406 2468.75 243.78125 C 2468.75 151.878906 2550.628906 77.261719 2651.480469 77.261719 "/>
</g>
</g>
<path fill-rule="evenodd" fill="rgb(89.646912%, 39.892578%, 14.109802%)" fill-opacity="1" d="M 2625.121094 128.511719 C 2639.671875 128.511719 2651.480469 139.269531 2651.480469 152.53125 C 2651.480469 165.78125 2639.671875 176.550781 2625.121094 176.550781 C 2610.570312 176.550781 2598.761719 165.78125 2598.761719 152.53125 C 2598.761719 139.269531 2610.570312 128.511719 2625.121094 128.511719 "/>
<path fill-rule="nonzero" fill="rgb(58.396912%, 84.375%, 100%)" fill-opacity="1" d="M 1217.679688 1013.746094 L 1217.679688 1404.46875 L 1416.339844 1404.46875 L 1416.339844 1013.746094 L 1217.679688 1013.746094 "/>
<path fill-rule="nonzero" fill="rgb(58.396912%, 84.375%, 100%)" fill-opacity="1" d="M 1241.839844 950.609375 L 1392.160156 950.609375 L 1392.160156 1124.398438 L 1241.839844 1124.398438 L 1241.839844 950.609375 "/>
<path fill-rule="nonzero" fill="rgb(58.396912%, 84.375%, 100%)" fill-opacity="1" d="M 1269.941406 865.519531 L 1364.070312 865.519531 L 1364.070312 981.769531 L 1269.941406 981.769531 L 1269.941406 865.519531 "/>
<path fill-rule="nonzero" fill="rgb(58.396912%, 84.375%, 100%)" fill-opacity="1" d="M 1278.351562 831.75 L 1355.640625 831.75 L 1355.640625 948.019531 L 1278.351562 948.019531 L 1278.351562 831.75 "/>
<path fill-rule="nonzero" fill="rgb(58.396912%, 84.375%, 100%)" fill-opacity="1" d="M 1292.980469 806.78125 L 1341.03125 806.78125 L 1341.03125 923.039062 L 1292.980469 923.039062 L 1292.980469 806.78125 "/>
<path fill-rule="nonzero" fill="rgb(58.396912%, 84.375%, 100%)" fill-opacity="1" d="M 1302.808594 781.628906 L 1331.199219 781.628906 L 1331.199219 897.871094 L 1302.808594 897.871094 L 1302.808594 781.628906 "/>
<path fill-rule="nonzero" fill="rgb(58.396912%, 84.375%, 100%)" fill-opacity="1" d="M 1312.101562 740.261719 L 1321.910156 740.261719 L 1321.910156 856.53125 L 1312.101562 856.53125 L 1312.101562 740.261719 "/>
<path fill-rule="nonzero" fill="rgb(58.396912%, 84.375%, 100%)" fill-opacity="1" d="M 168.765625 1000.535156 L 426.449219 1000.535156 L 426.449219 1530.480469 L 168.765625 1530.480469 L 168.765625 1000.535156 "/>
<path fill-rule="nonzero" fill="rgb(58.396912%, 84.375%, 100%)" fill-opacity="1" d="M 198.664062 963.109375 L 396.539062 963.109375 L 396.539062 1104.445312 L 198.664062 1104.445312 L 198.664062 963.109375 "/>
<path fill-rule="nonzero" fill="rgb(58.396912%, 84.375%, 100%)" fill-opacity="1" d="M 211.582031 934.609375 L 383.636719 934.609375 L 383.636719 969.550781 L 211.582031 969.550781 L 211.582031 934.609375 "/>
<path fill-rule="nonzero" fill="rgb(58.396912%, 84.375%, 100%)" fill-opacity="1" d="M 254.089844 905.171875 L 341.125 905.171875 L 341.125 939.589844 L 254.089844 939.589844 L 254.089844 905.171875 "/>
<path fill-rule="nonzero" fill="rgb(58.396912%, 84.375%, 100%)" fill-opacity="1" d="M 290.882812 781.628906 L 304.320312 781.628906 L 304.320312 963.109375 L 290.882812 963.109375 L 290.882812 781.628906 "/>
<path fill-rule="nonzero" fill="rgb(58.396912%, 84.375%, 100%)" fill-opacity="1" d="M 324.324219 1101.042969 L 418.289062 1101.042969 L 418.289062 1405.789062 L 324.324219 1405.789062 L 324.324219 1101.042969 "/>
<path fill-rule="nonzero" fill="rgb(58.396912%, 84.375%, 100%)" fill-opacity="1" d="M 1499.039062 1249.382812 L 1572.601562 1249.382812 L 1572.601562 1449.488281 L 1499.039062 1449.488281 L 1499.039062 1249.382812 "/>
<path fill-rule="nonzero" fill="rgb(58.396912%, 84.375%, 100%)" fill-opacity="1" d="M -7.78125 1375.28125 L -7.78125 1468.234375 L 949.257812 1468.234375 L 949.257812 1377.734375 C 949.257812 1376.347656 948.128906 1375.28125 946.839844 1375.28125 L -7.78125 1375.28125 "/>
<path fill-rule="nonzero" fill="rgb(58.396912%, 84.375%, 100%)" fill-opacity="1" d="M 781.929688 969.550781 L 781.929688 1468.234375 L 949.257812 1468.234375 L 949.257812 969.550781 L 781.929688 969.550781 "/>
<path fill-rule="nonzero" fill="rgb(58.396912%, 84.375%, 100%)" fill-opacity="1" d="M 792.433594 1316.179688 L 475.070312 1319.242188 L 476.761719 1478.476562 L 794.128906 1475.414062 L 792.433594 1316.179688 "/>
<path fill-rule="nonzero" fill="rgb(58.396912%, 84.375%, 100%)" fill-opacity="1" d="M 503.40625 1330.730469 L 407.234375 1330.730469 L 407.234375 1463.925781 L 503.40625 1463.925781 L 503.40625 1330.730469 "/>
<path fill-rule="nonzero" fill="rgb(58.396912%, 84.375%, 100%)" fill-opacity="1" d="M 481.628906 1290.15625 L 426.449219 1290.15625 L 426.449219 1373.898438 L 481.628906 1373.898438 L 481.628906 1290.15625 "/>
<path fill-rule="nonzero" fill="rgb(58.396912%, 84.375%, 100%)" fill-opacity="1" d="M 383.679688 1293.558594 L 207.632812 1293.558594 L 207.632812 1434.71875 L 383.679688 1434.71875 L 383.679688 1293.558594 "/>
<path fill-rule="nonzero" fill="rgb(58.396912%, 84.375%, 100%)" fill-opacity="1" d="M 190.847656 1331.207031 L 190.847656 1468.234375 L 225.21875 1468.234375 L 225.21875 1331.207031 L 190.847656 1331.207031 "/>
<path fill-rule="nonzero" fill="rgb(58.396912%, 84.375%, 100%)" fill-opacity="1" d="M 179.875 1397.25 L 179.875 1293.855469 L 165.511719 1293.855469 L 165.511719 1248.535156 L 139.695312 1227.039062 L 36.101562 1227.039062 L 36.585938 1406.621094 L 179.875 1397.25 "/>
<path fill-rule="nonzero" fill="rgb(58.396912%, 84.375%, 100%)" fill-opacity="1" d="M 939.253906 1425.820312 L 939.253906 1468.234375 L 2972.160156 1468.234375 L 2972.160156 1425.820312 L 939.253906 1425.820312 "/>
<path fill-rule="nonzero" fill="rgb(58.396912%, 84.375%, 100%)" fill-opacity="1" d="M 1366.871094 1349.023438 L 1421.410156 1349.023438 L 1421.410156 1452.101562 L 1366.871094 1452.101562 L 1366.871094 1349.023438 "/>
<path fill-rule="nonzero" fill="rgb(58.396912%, 84.375%, 100%)" fill-opacity="1" d="M 1563.570312 988.808594 L 1778.671875 988.808594 L 1778.671875 1451.941406 L 1563.570312 1451.941406 L 1563.570312 988.808594 "/>
<path fill-rule="nonzero" fill="rgb(58.396912%, 84.375%, 100%)" fill-opacity="1" d="M 1598.519531 865.25 L 1734.070312 920.320312 L 1734.070312 1092.363281 L 1598.519531 1037.296875 L 1598.519531 865.25 "/>
<path fill-rule="nonzero" fill="rgb(58.396912%, 84.375%, 100%)" fill-opacity="1" d="M 1640.621094 847.351562 L 1691.960938 868.289062 L 1691.960938 933.480469 L 1640.621094 912.558594 L 1640.621094 847.351562 "/>
<path fill-rule="nonzero" fill="rgb(58.396912%, 84.375%, 100%)" fill-opacity="1" d="M 1849.988281 1087.539062 L 1988.128906 1087.539062 L 1988.128906 1449.785156 L 1849.988281 1449.785156 L 1849.988281 1087.539062 "/>
<path fill-rule="nonzero" fill="rgb(58.396912%, 84.375%, 100%)" fill-opacity="1" d="M 1881.949219 1075.871094 L 1956.171875 1075.871094 L 1956.171875 1096.753906 L 1881.949219 1096.753906 L 1881.949219 1075.871094 "/>
<path fill-rule="nonzero" fill="rgb(58.396912%, 84.375%, 100%)" fill-opacity="1" d="M 1876.941406 1056.058594 L 1961.179688 1056.058594 L 1961.179688 1079.710938 L 1876.941406 1079.710938 L 1876.941406 1056.058594 "/>
<path fill-rule="nonzero" fill="rgb(58.396912%, 84.375%, 100%)" fill-opacity="1" d="M 1923.558594 970.480469 L 1923.558594 1060.964844 L 1914.550781 1060.964844 L 1914.550781 970.480469 L 1923.558594 970.480469 "/>
<path fill-rule="nonzero" fill="rgb(58.396912%, 84.375%, 100%)" fill-opacity="1" d="M 1889.839844 1039.925781 L 1948.261719 1039.925781 L 1948.261719 1063.433594 L 1889.839844 1063.433594 L 1889.839844 1039.925781 "/>
<path fill-rule="nonzero" fill="rgb(58.396912%, 84.375%, 100%)" fill-opacity="1" d="M 1973.261719 1364.839844 L 2032.488281 1364.839844 L 2032.488281 1435.351562 L 1973.261719 1435.351562 L 1973.261719 1364.839844 "/>
<path fill-rule="nonzero" fill="rgb(58.396912%, 84.375%, 100%)" fill-opacity="1" d="M 1963.308594 1284.183594 L 2035.691406 1284.183594 L 2035.691406 1447.632812 L 1963.308594 1447.632812 L 1963.308594 1284.183594 "/>
<path fill-rule="nonzero" fill="rgb(58.396912%, 84.375%, 100%)" fill-opacity="1" d="M 2148.691406 1183.816406 L 2272.769531 1183.816406 L 2272.769531 1449.925781 L 2148.691406 1449.925781 L 2148.691406 1183.816406 "/>
<path fill-rule="nonzero" fill="rgb(58.396912%, 84.375%, 100%)" fill-opacity="1" d="M 2495.460938 1180.789062 L 2570 1180.789062 L 2570 1442.113281 L 2495.460938 1442.113281 L 2495.460938 1180.789062 "/>
<path fill-rule="nonzero" fill="rgb(58.396912%, 84.375%, 100%)" fill-opacity="1" d="M 2645.671875 1253.457031 L 2678.921875 1253.457031 L 2678.921875 1439.960938 L 2645.671875 1439.960938 L 2645.671875 1253.457031 "/>
<path fill-rule="nonzero" fill="rgb(58.396912%, 84.375%, 100%)" fill-opacity="1" d="M 2730.410156 1140.550781 L 2827.21875 1140.550781 L 2827.21875 1448.5625 L 2730.410156 1448.5625 L 2730.410156 1140.550781 "/>
<path fill-rule="nonzero" fill="rgb(58.396912%, 84.375%, 100%)" fill-opacity="1" d="M 2175.640625 1150.855469 L 2245.808594 1150.855469 L 2245.808594 1301.269531 L 2175.640625 1301.269531 L 2175.640625 1150.855469 "/>
<path fill-rule="nonzero" fill="rgb(58.396912%, 84.375%, 100%)" fill-opacity="1" d="M 2843.03125 1028.554688 L 2972.160156 1028.554688 L 2972.160156 1456.234375 L 2843.03125 1456.234375 L 2843.03125 1028.554688 "/>
<path fill-rule="nonzero" fill="rgb(58.396912%, 84.375%, 100%)" fill-opacity="1" d="M 2859.890625 998.300781 L 2954.921875 998.300781 L 2954.921875 1071.105469 L 2859.890625 1071.105469 L 2859.890625 998.300781 "/>
<path fill-rule="nonzero" fill="rgb(58.396912%, 84.375%, 100%)" fill-opacity="1" d="M 2872.289062 963.71875 L 2942.550781 963.71875 L 2942.550781 1017.503906 L 2872.289062 1017.503906 L 2872.289062 963.71875 "/>
<path fill-rule="nonzero" fill="rgb(58.396912%, 84.375%, 100%)" fill-opacity="1" d="M 2911 899.96875 L 2911 990.449219 L 2903.839844 990.449219 L 2903.839844 899.96875 L 2911 899.96875 "/>
<path fill-rule="nonzero" fill="rgb(58.396912%, 84.375%, 100%)" fill-opacity="1" d="M 979.59375 1264.214844 L 1115.949219 1264.214844 L 1115.949219 1456.234375 L 979.59375 1456.234375 L 979.59375 1264.214844 "/>
<path fill-rule="nonzero" fill="rgb(58.396912%, 84.375%, 100%)" fill-opacity="1" d="M 366.894531 1294.46875 L 421.277344 1294.46875 L 421.277344 1513.851562 L 366.894531 1513.851562 L 366.894531 1294.46875 "/>
<path fill-rule="nonzero" fill="rgb(58.396912%, 84.375%, 100%)" fill-opacity="1" d="M 2795.261719 1321.199219 L 2829.160156 1321.199219 L 2829.160156 1495.425781 L 2795.261719 1495.425781 L 2795.261719 1321.199219 "/>
<path fill-rule="nonzero" fill="rgb(58.396912%, 84.375%, 100%)" fill-opacity="1" d="M 945.867188 1357.308594 L 945.867188 1468.234375 L 976.367188 1468.234375 L 976.367188 1357.308594 L 945.867188 1357.308594 "/>
<path fill-rule="nonzero" fill="rgb(58.396912%, 84.375%, 100%)" fill-opacity="1" d="M 961.6875 1390.941406 L 961.6875 1468.234375 L 990.40625 1468.234375 L 990.40625 1390.941406 L 961.6875 1390.941406 "/>
<path fill-rule="nonzero" fill="rgb(58.396912%, 84.375%, 100%)" fill-opacity="1" d="M 339.308594 1276.039062 L 261.6875 1276.039062 L 261.6875 1303.386719 L 339.308594 1303.386719 L 339.308594 1276.039062 "/>
<path fill-rule="nonzero" fill="rgb(58.396912%, 84.375%, 100%)" fill-opacity="1" d="M 323.324219 1265.144531 L 278.3125 1265.144531 L 278.3125 1281.121094 L 323.324219 1281.121094 L 323.324219 1265.144531 "/>
<path fill-rule="nonzero" fill="rgb(58.396912%, 84.375%, 100%)" fill-opacity="1" d="M 1313.460938 1339.789062 L 1350.25 1339.789062 L 1350.25 1442.867188 L 1313.460938 1442.867188 L 1313.460938 1339.789062 "/>
<path fill-rule="nonzero" fill="rgb(58.396912%, 84.375%, 100%)" fill-opacity="1" d="M 2046.050781 1365.613281 L 2076.710938 1365.613281 L 2076.710938 1436.105469 L 2046.050781 1436.105469 L 2046.050781 1365.613281 "/>
<path fill-rule="nonzero" fill="rgb(58.396912%, 84.375%, 100%)" fill-opacity="1" d="M 2402.671875 1353.152344 L 2519.660156 1353.152344 L 2519.660156 1442.113281 L 2402.671875 1442.113281 L 2402.671875 1353.152344 "/>
<path fill-rule="nonzero" fill="rgb(58.396912%, 84.375%, 100%)" fill-opacity="1" d="M 2565.96875 1363 L 2651.820312 1363 L 2651.820312 1438.890625 L 2565.96875 1438.890625 L 2565.96875 1363 "/>
<path fill-rule="nonzero" fill="rgb(58.396912%, 84.375%, 100%)" fill-opacity="1" d="M -41.03125 1544.421875 L -41.03125 1630.59375 L 2971.25 1630.59375 L 2971.25 1544.421875 L -41.03125 1544.421875 "/>
<path fill-rule="nonzero" fill="rgb(58.396912%, 84.375%, 100%)" fill-opacity="1" d="M 2082.871094 1375.4375 C 2081.648438 1375.4375 2080.761719 1376.804688 2080.761719 1378.503906 L 2080.761719 1549.347656 C 2080.761719 1551.027344 2081.648438 1552.253906 2082.871094 1552.253906 L 2954.921875 1552.253906 L 2954.921875 1375.4375 L 2082.871094 1375.4375 "/>
<path fill-rule="nonzero" fill="rgb(58.396912%, 84.375%, 100%)" fill-opacity="1" d="M 2083.96875 1443.5 L 1456.421875 1443.5 L 1456.421875 1598.503906 C 1456.421875 1600.023438 1457.238281 1601.269531 1458.359375 1601.269531 L 2083.96875 1601.269531 L 2083.96875 1443.5 "/>
<path fill-rule="nonzero" fill="rgb(58.396912%, 84.375%, 100%)" fill-opacity="1" d="M 2053.96875 1353.472656 L 2053.96875 1509.085938 L 2083.96875 1509.085938 L 2083.96875 1353.472656 L 2053.96875 1353.472656 "/>
<path fill-rule="nonzero" fill="rgb(58.396912%, 84.375%, 100%)" fill-opacity="1" d="M 2068.480469 1394.957031 L 2040.089844 1394.957031 L 2040.089844 1550.59375 L 2068.480469 1550.59375 L 2068.480469 1394.957031 "/>
<path fill-rule="nonzero" fill="rgb(58.396912%, 84.375%, 100%)" fill-opacity="1" d="M 1727.851562 1278.332031 L 1635.871094 1278.332031 L 1635.871094 1481.128906 L 1727.851562 1481.128906 L 1727.851562 1278.332031 "/>
<path fill-rule="nonzero" fill="rgb(58.396912%, 84.375%, 100%)" fill-opacity="1" d="M 1622.949219 1352.996094 L 1530.980469 1352.996094 L 1530.980469 1508.613281 L 1622.949219 1508.613281 L 1622.949219 1352.996094 "/>
<path fill-rule="nonzero" fill="rgb(58.396912%, 84.375%, 100%)" fill-opacity="1" d="M 1519.351562 1354.992188 L 1519.351562 1510.628906 L 1456.421875 1510.628906 L 1456.421875 1354.992188 L 1519.351562 1354.992188 "/>
<path fill-rule="nonzero" fill="rgb(58.396912%, 84.375%, 100%)" fill-opacity="1" d="M 1714.769531 1258.914062 L 1650.71875 1258.914062 L 1650.71875 1298.363281 L 1714.769531 1298.363281 L 1714.769531 1258.914062 "/>
<path fill-rule="nonzero" fill="rgb(58.396912%, 84.375%, 100%)" fill-opacity="1" d="M 1701.691406 1243.292969 L 1664.589844 1243.292969 L 1664.589844 1266.132812 L 1701.691406 1266.132812 L 1701.691406 1243.292969 "/>
<path fill-rule="nonzero" fill="rgb(58.396912%, 84.375%, 100%)" fill-opacity="1" d="M 1987.160156 1465.03125 L 1987.160156 1323.296875 L 1975.378906 1323.296875 L 1975.378906 1261.128906 L 1954.070312 1231.488281 L 1868.570312 1231.488281 L 1868.859375 1478.042969 L 1987.160156 1465.03125 "/>
<path fill-rule="nonzero" fill="rgb(58.396912%, 84.375%, 100%)" fill-opacity="1" d="M 1856.609375 1386.355469 L 1818.851562 1386.355469 L 1818.851562 1533.347656 L 1856.609375 1533.347656 L 1856.609375 1386.355469 "/>
<path fill-rule="nonzero" fill="rgb(58.396912%, 84.375%, 100%)" fill-opacity="1" d="M 1826.429688 1335.261719 L 1788.828125 1335.261719 L 1788.828125 1542.40625 L 1826.429688 1542.40625 L 1826.429688 1335.261719 "/>
<path fill-rule="nonzero" fill="rgb(58.396912%, 84.375%, 100%)" fill-opacity="1" d="M 1797.550781 1368.164062 L 1759.789062 1368.164062 L 1759.789062 1575.289062 L 1797.550781 1575.289062 L 1797.550781 1368.164062 "/>
<path fill-rule="nonzero" fill="rgb(58.396912%, 84.375%, 100%)" fill-opacity="1" d="M 1734.070312 1352.304688 L 1707.429688 1352.304688 L 1707.429688 1499.320312 L 1734.070312 1499.320312 L 1734.070312 1352.304688 "/>
<path fill-rule="nonzero" fill="rgb(58.396912%, 84.375%, 100%)" fill-opacity="1" d="M 16.898438 1417.21875 C 15.605469 1417.21875 14.640625 1418.605469 14.640625 1420.148438 L 14.640625 1590.96875 C 14.640625 1592.648438 15.605469 1594.035156 16.898438 1594.035156 L 1459 1594.035156 C 1460.140625 1594.035156 1461.109375 1592.648438 1461.109375 1590.96875 L 1461.109375 1417.378906 L 1460.789062 1417.21875 L 16.898438 1417.21875 "/>
<path fill-rule="nonzero" fill="rgb(58.396912%, 84.375%, 100%)" fill-opacity="1" d="M 14.640625 1207.523438 L 157.609375 1207.523438 L 157.609375 1594.035156 L 14.640625 1594.035156 L 14.640625 1207.523438 "/>
<path fill-rule="nonzero" fill="rgb(58.396912%, 84.375%, 100%)" fill-opacity="1" d="M 209.726562 1212.308594 L 374.8125 1212.308594 L 374.8125 1559.015625 L 209.726562 1559.015625 L 209.726562 1212.308594 "/>
<path fill-rule="nonzero" fill="rgb(58.396912%, 84.375%, 100%)" fill-opacity="1" d="M 572.796875 1316.296875 L 746.59375 1316.296875 L 746.59375 1490.65625 L 572.796875 1490.65625 L 572.796875 1316.296875 "/>
<path fill-rule="nonzero" fill="rgb(58.396912%, 84.375%, 100%)" fill-opacity="1" d="M 616.53125 1294.625 L 693.167969 1294.625 L 693.167969 1328.4375 L 616.53125 1328.4375 L 616.53125 1294.625 "/>
<path fill-rule="nonzero" fill="rgb(58.396912%, 84.375%, 100%)" fill-opacity="1" d="M 632.347656 1281.277344 L 676.714844 1281.277344 L 676.714844 1300.933594 L 632.347656 1300.933594 L 632.347656 1281.277344 "/>
<path fill-rule="nonzero" fill="rgb(58.396912%, 84.375%, 100%)" fill-opacity="1" d="M 729.160156 1362.84375 L 763.050781 1362.84375 L 763.050781 1537.203125 L 729.160156 1537.203125 L 729.160156 1362.84375 "/>
<path fill-rule="nonzero" fill="rgb(58.396912%, 84.375%, 100%)" fill-opacity="1" d="M 1261.988281 1230.027344 L 1372.03125 1230.027344 L 1372.03125 1490.203125 L 1261.988281 1490.203125 L 1261.988281 1230.027344 "/>
<path fill-rule="nonzero" fill="rgb(58.396912%, 84.375%, 100%)" fill-opacity="1" d="M 1355.640625 1256.976562 L 1355.640625 1492.496094 L 1461.109375 1492.496094 L 1461.109375 1256.976562 L 1355.640625 1256.976562 "/>
<path fill-rule="nonzero" fill="rgb(58.396912%, 84.375%, 100%)" fill-opacity="1" d="M 826.460938 1444.410156 L 826.460938 1316.753906 L 840.660156 1316.753906 L 840.660156 1260.832031 L 866.003906 1234.097656 L 968.300781 1234.097656 L 967.8125 1455.914062 L 826.460938 1444.410156 "/>
<path fill-rule="nonzero" fill="rgb(58.396912%, 84.375%, 100%)" fill-opacity="1" d="M 954.421875 1337.949219 L 999.445312 1337.949219 L 999.445312 1502.621094 L 954.421875 1502.621094 L 954.421875 1337.949219 "/>
<path fill-rule="nonzero" fill="rgb(58.396912%, 84.375%, 100%)" fill-opacity="1" d="M 990.25 1358.691406 L 1035.421875 1358.691406 L 1035.421875 1523.363281 L 990.25 1523.363281 L 990.25 1358.691406 "/>
<path fill-rule="nonzero" fill="rgb(58.396912%, 84.375%, 100%)" fill-opacity="1" d="M 1024.941406 1384.96875 L 1070.121094 1384.96875 L 1070.121094 1549.484375 L 1024.941406 1549.484375 L 1024.941406 1384.96875 "/>
<path fill-rule="nonzero" fill="rgb(58.396912%, 84.375%, 100%)" fill-opacity="1" d="M 1090.628906 1328.574219 L 1157.75 1328.574219 L 1157.75 1493.109375 L 1090.628906 1493.109375 L 1090.628906 1328.574219 "/>
<path fill-rule="nonzero" fill="rgb(58.396912%, 84.375%, 100%)" fill-opacity="1" d="M -9.726562 1382.953125 L -9.726562 1551.164062 L 18.347656 1551.164062 L 18.347656 1382.953125 L -9.726562 1382.953125 "/>
<path fill-rule="nonzero" fill="rgb(58.396912%, 84.375%, 100%)" fill-opacity="1" d="M 2080.761719 1284.640625 L 2245.808594 1284.640625 L 2245.808594 1552.253906 L 2080.761719 1552.253906 L 2080.761719 1284.640625 "/>
<path fill-rule="nonzero" fill="rgb(58.396912%, 84.375%, 100%)" fill-opacity="1" d="M 2107.691406 1213.21875 L 2211.609375 1245.171875 L 2211.609375 1344.554688 L 2107.691406 1312.597656 L 2107.691406 1213.21875 "/>
<path fill-rule="nonzero" fill="rgb(58.396912%, 84.375%, 100%)" fill-opacity="1" d="M 2139.960938 1202.914062 L 2179.339844 1215.058594 L 2179.339844 1252.6875 L 2139.960938 1240.703125 L 2139.960938 1202.914062 "/>
<path fill-rule="nonzero" fill="rgb(58.396912%, 84.375%, 100%)" fill-opacity="1" d="M 2275.839844 1170.507812 L 2440.910156 1170.507812 L 2440.910156 1517.390625 L 2275.839844 1517.390625 L 2275.839844 1170.507812 "/>
<path fill-rule="nonzero" fill="rgb(58.396912%, 84.375%, 100%)" fill-opacity="1" d="M 2432.988281 1252.84375 L 2487.378906 1252.84375 L 2487.378906 1472.070312 L 2432.988281 1472.070312 L 2432.988281 1252.84375 "/>
<path fill-rule="nonzero" fill="rgb(58.396912%, 84.375%, 100%)" fill-opacity="1" d="M 2520.628906 1320.429688 L 2615.671875 1320.429688 L 2615.671875 1485.121094 L 2520.628906 1485.121094 L 2520.628906 1320.429688 "/>
<path fill-rule="nonzero" fill="rgb(58.396912%, 84.375%, 100%)" fill-opacity="1" d="M 2542.25 1270.34375 L 2596.640625 1270.34375 L 2596.640625 1373.898438 L 2542.25 1373.898438 L 2542.25 1270.34375 "/>
<path fill-rule="nonzero" fill="rgb(58.396912%, 84.375%, 100%)" fill-opacity="1" d="M 2559.199219 1259.132812 L 2576.949219 1259.132812 L 2576.949219 1282.644531 L 2559.199219 1282.644531 L 2559.199219 1259.132812 "/>
<path fill-rule="nonzero" fill="rgb(58.396912%, 84.375%, 100%)" fill-opacity="1" d="M 2638.898438 1274.652344 L 2812.710938 1274.652344 L 2812.710938 1449.015625 L 2638.898438 1449.015625 L 2638.898438 1274.652344 "/>
<path fill-rule="nonzero" fill="rgb(58.396912%, 84.375%, 100%)" fill-opacity="1" d="M 2682.640625 1252.84375 L 2759.269531 1252.84375 L 2759.269531 1286.796875 L 2682.640625 1286.796875 L 2682.640625 1252.84375 "/>
<path fill-rule="nonzero" fill="rgb(58.396912%, 84.375%, 100%)" fill-opacity="1" d="M 2698.441406 1239.636719 L 2742.828125 1239.636719 L 2742.828125 1259.132812 L 2698.441406 1259.132812 L 2698.441406 1239.636719 "/>
<path fill-rule="nonzero" fill="rgb(58.396912%, 84.375%, 100%)" fill-opacity="1" d="M 928.441406 1562.078125 L 928.441406 1630.59375 L 957.175781 1630.59375 L 957.175781 1562.078125 L 928.441406 1562.078125 "/>
<path fill-rule="nonzero" fill="rgb(58.396912%, 84.375%, 100%)" fill-opacity="1" d="M 450.863281 1316.613281 L 426.75 1316.613281 L 426.75 1349.003906 L 450.863281 1349.003906 L 450.863281 1316.613281 "/>
<path fill-rule="nonzero" fill="rgb(58.396912%, 84.375%, 100%)" fill-opacity="1" d="M 2532.71875 1442.113281 L 2618.570312 1442.113281 L 2618.570312 1604.632812 L 2532.71875 1604.632812 L 2532.71875 1442.113281 "/>
<path fill-rule="nonzero" fill="rgb(58.396912%, 84.375%, 100%)" fill-opacity="1" d="M 2596.640625 1474.820312 L 2705.21875 1474.820312 L 2705.21875 1604.632812 L 2596.640625 1604.632812 L 2596.640625 1474.820312 "/>
<path fill-rule="nonzero" fill="rgb(58.396912%, 84.375%, 100%)" fill-opacity="1" d="M 1465.789062 1482.355469 L 1539.371094 1482.355469 L 1539.371094 1613.847656 L 1465.789062 1613.847656 L 1465.789062 1482.355469 "/>
<path fill-rule="nonzero" fill="rgb(58.396912%, 84.375%, 100%)" fill-opacity="1" d="M -41.03125 1548.257812 L -41.03125 1630.59375 L 915.851562 1630.59375 L 915.851562 1550.414062 C 915.851562 1549.1875 914.890625 1548.257812 913.59375 1548.257812 L -41.03125 1548.257812 "/>
<path fill-rule="nonzero" fill="rgb(58.396912%, 84.375%, 100%)" fill-opacity="1" d="M 912.636719 1532.4375 L 912.636719 1630.59375 L 943.128906 1630.59375 L 943.128906 1532.4375 L 912.636719 1532.4375 "/>
<path fill-rule="nonzero" fill="rgb(58.396912%, 84.375%, 100%)" fill-opacity="1" d="M 551.011719 1256.976562 L 551.011719 1630.59375 L 718.183594 1630.59375 L 718.183594 1256.976562 L 551.011719 1256.976562 "/>
<path fill-rule="nonzero" fill="rgb(58.396912%, 84.375%, 100%)" fill-opacity="1" d="M 559.082031 1353.152344 L 503.890625 1353.152344 L 503.890625 1609.316406 L 559.082031 1609.316406 L 559.082031 1353.152344 "/>
<path fill-rule="nonzero" fill="rgb(58.396912%, 84.375%, 100%)" fill-opacity="1" d="M 503.40625 1400.789062 L 373.996094 1400.789062 L 373.996094 1626.777344 L 503.40625 1626.777344 L 503.40625 1400.789062 "/>
<path fill-rule="nonzero" fill="rgb(58.396912%, 84.375%, 100%)" fill-opacity="1" d="M 474.09375 1332.234375 L 399.835938 1332.234375 L 399.835938 1474.050781 L 474.09375 1474.050781 L 474.09375 1332.234375 "/>
<path fill-rule="nonzero" fill="rgb(58.396912%, 84.375%, 100%)" fill-opacity="1" d="M 350.4375 1355.46875 L 174.390625 1355.46875 L 174.390625 1577.839844 L 350.4375 1577.839844 L 350.4375 1355.46875 "/>
<path fill-rule="nonzero" fill="rgb(58.396912%, 84.375%, 100%)" fill-opacity="1" d="M 285.820312 1630.59375 L 208.207031 1630.59375 L 208.207031 1673.78125 L 285.820312 1673.78125 L 285.820312 1630.59375 "/>
<path fill-rule="nonzero" fill="rgb(58.396912%, 84.375%, 100%)" fill-opacity="1" d="M 290.085938 1310.621094 L 245.066406 1310.621094 L 245.066406 1335.515625 L 290.085938 1335.515625 L 290.085938 1310.621094 "/>
<path fill-rule="nonzero" fill="rgb(58.396912%, 84.375%, 100%)" fill-opacity="1" d="M 157.609375 1414.550781 L 157.609375 1630.59375 L 191.980469 1630.59375 L 191.980469 1414.550781 L 157.609375 1414.550781 "/>
<path fill-rule="nonzero" fill="rgb(58.396912%, 84.375%, 100%)" fill-opacity="1" d="M 146.632812 1562.476562 L 146.632812 1412.632812 L 132.273438 1412.632812 L 132.273438 1347.003906 L 106.460938 1315.84375 L 2.859375 1315.84375 L 3.347656 1576.058594 L 146.632812 1562.476562 "/>
<path fill-rule="nonzero" fill="rgb(58.396912%, 84.375%, 100%)" fill-opacity="1" d="M 906.015625 1593.125 L 906.015625 1630.59375 L 2972.160156 1630.59375 L 2972.160156 1593.125 L 906.015625 1593.125 "/>
<path fill-rule="nonzero" fill="rgb(58.396912%, 84.375%, 100%)" fill-opacity="1" d="M 1383.648438 1423.824219 L 1493.550781 1423.824219 L 1493.550781 1616.792969 L 1383.648438 1616.792969 L 1383.648438 1423.824219 "/>
<path fill-rule="nonzero" fill="rgb(58.396912%, 84.375%, 100%)" fill-opacity="1" d="M 1298.511719 1525.382812 L 1394.140625 1525.382812 L 1394.140625 1616.613281 L 1298.511719 1616.613281 L 1298.511719 1525.382812 "/>
<path fill-rule="nonzero" fill="rgb(58.396912%, 84.375%, 100%)" fill-opacity="1" d="M 1405.769531 1368.0625 L 1460.308594 1368.0625 L 1460.308594 1459.316406 L 1405.769531 1459.316406 L 1405.769531 1368.0625 "/>
<path fill-rule="nonzero" fill="rgb(58.396912%, 84.375%, 100%)" fill-opacity="1" d="M 1280.21875 1516.9375 L 1317.011719 1516.9375 L 1317.011719 1608.171875 L 1280.21875 1608.171875 L 1280.21875 1516.9375 "/>
<path fill-rule="nonzero" fill="rgb(58.396912%, 84.375%, 100%)" fill-opacity="1" d="M 1530.171875 1348.546875 L 1695.238281 1348.546875 L 1695.238281 1616.160156 L 1530.171875 1616.160156 L 1530.171875 1348.546875 "/>
<path fill-rule="nonzero" fill="rgb(58.396912%, 84.375%, 100%)" fill-opacity="1" d="M 1557.121094 1277.125 L 1661.039062 1308.902344 L 1661.039062 1408.304688 L 1557.121094 1376.507812 L 1557.121094 1277.125 "/>
<path fill-rule="nonzero" fill="rgb(58.396912%, 84.375%, 100%)" fill-opacity="1" d="M 2455.78125 1294.527344 L 2279.539062 1294.527344 L 2279.539062 1600.796875 L 2455.78125 1600.796875 L 2455.78125 1294.527344 "/>
<path fill-rule="nonzero" fill="rgb(58.396912%, 84.375%, 100%)" fill-opacity="1" d="M 1589.398438 1266.6875 L 1628.75 1278.808594 L 1628.75 1316.613281 L 1589.398438 1304.472656 L 1589.398438 1266.6875 "/>
<path fill-rule="nonzero" fill="rgb(58.396912%, 84.375%, 100%)" fill-opacity="1" d="M 1816.761719 1293.558594 L 1954.878906 1293.558594 L 1954.878906 1614.164062 L 1816.761719 1614.164062 L 1816.761719 1293.558594 "/>
<path fill-rule="nonzero" fill="rgb(58.396912%, 84.375%, 100%)" fill-opacity="1" d="M 1848.699219 1283.257812 L 1922.921875 1283.257812 L 1922.921875 1301.683594 L 1848.699219 1301.683594 L 1848.699219 1283.257812 "/>
<path fill-rule="nonzero" fill="rgb(58.396912%, 84.375%, 100%)" fill-opacity="1" d="M 1843.691406 1265.757812 L 1927.929688 1265.757812 L 1927.929688 1286.636719 L 1843.691406 1286.636719 L 1843.691406 1265.757812 "/>
<path fill-rule="nonzero" fill="rgb(58.396912%, 84.375%, 100%)" fill-opacity="1" d="M 1890.339844 1190.003906 L 1890.339844 1270.046875 L 1881.300781 1270.046875 L 1881.300781 1190.003906 L 1890.339844 1190.003906 "/>
<path fill-rule="nonzero" fill="rgb(58.396912%, 84.375%, 100%)" fill-opacity="1" d="M 1856.609375 1251.300781 L 1915.03125 1251.300781 L 1915.03125 1272.203125 L 1856.609375 1272.203125 L 1856.609375 1251.300781 "/>
<path fill-rule="nonzero" fill="rgb(58.396912%, 84.375%, 100%)" fill-opacity="1" d="M 1940.03125 1539.042969 L 1999.261719 1539.042969 L 1999.261719 1601.410156 L 1940.03125 1601.410156 L 1940.03125 1539.042969 "/>
<path fill-rule="nonzero" fill="rgb(58.396912%, 84.375%, 100%)" fill-opacity="1" d="M 1876.941406 1467.761719 L 2124.78125 1467.761719 L 2124.78125 1612.324219 L 1876.941406 1612.324219 L 1876.941406 1467.761719 "/>
<path fill-rule="nonzero" fill="rgb(58.396912%, 84.375%, 100%)" fill-opacity="1" d="M 1999.261719 1350.226562 L 2083.96875 1350.226562 L 2083.96875 1564.769531 L 1999.261719 1564.769531 L 1999.261719 1350.226562 "/>
<path fill-rule="nonzero" fill="rgb(58.396912%, 84.375%, 100%)" fill-opacity="1" d="M 1685.488281 1465.40625 L 1868.859375 1465.40625 L 1868.859375 1602.695312 L 1685.488281 1602.695312 L 1685.488281 1465.40625 "/>
<path fill-rule="nonzero" fill="rgb(58.396912%, 84.375%, 100%)" fill-opacity="1" d="M 2115.441406 1353.152344 L 2239.519531 1353.152344 L 2239.519531 1556.109375 L 2115.441406 1556.109375 L 2115.441406 1353.152344 "/>
<path fill-rule="nonzero" fill="rgb(58.396912%, 84.375%, 100%)" fill-opacity="1" d="M 2212.570312 1402.785156 L 2536.769531 1402.785156 L 2536.769531 1607.398438 L 2212.570312 1607.398438 L 2212.570312 1402.785156 "/>
<path fill-rule="nonzero" fill="rgb(58.396912%, 84.375%, 100%)" fill-opacity="1" d="M 2227.910156 1520.300781 L 2358.359375 1520.300781 L 2358.359375 1605.5625 L 2227.910156 1605.5625 L 2227.910156 1520.300781 "/>
<path fill-rule="nonzero" fill="rgb(58.396912%, 84.375%, 100%)" fill-opacity="1" d="M 2697.160156 1340.558594 L 2820.871094 1340.558594 L 2820.871094 1613.253906 L 2697.160156 1613.253906 L 2697.160156 1340.558594 "/>
<path fill-rule="nonzero" fill="rgb(58.396912%, 84.375%, 100%)" fill-opacity="1" d="M 2142.390625 1327.984375 L 2212.570312 1327.984375 L 2212.570312 1442.726562 L 2142.390625 1442.726562 L 2142.390625 1327.984375 "/>
<path fill-rule="nonzero" fill="rgb(58.396912%, 84.375%, 100%)" fill-opacity="1" d="M 2809.800781 1241.316406 L 2972.640625 1241.316406 L 2972.640625 1619.996094 L 2809.800781 1619.996094 L 2809.800781 1241.316406 "/>
<path fill-rule="nonzero" fill="rgb(58.396912%, 84.375%, 100%)" fill-opacity="1" d="M 2831.089844 1214.582031 L 2951.140625 1214.582031 L 2951.140625 1279.101562 L 2831.089844 1279.101562 L 2831.089844 1214.582031 "/>
<path fill-rule="nonzero" fill="rgb(58.396912%, 84.375%, 100%)" fill-opacity="1" d="M 2846.75 1183.855469 L 2935.320312 1183.855469 L 2935.320312 1231.488281 L 2846.75 1231.488281 L 2846.75 1183.855469 "/>
<path fill-rule="nonzero" fill="rgb(58.396912%, 84.375%, 100%)" fill-opacity="1" d="M 2895.628906 1127.5 L 2895.628906 1207.523438 L 2886.601562 1207.523438 L 2886.601562 1127.5 L 2895.628906 1127.5 "/>
<path fill-rule="nonzero" fill="rgb(58.396912%, 84.375%, 100%)" fill-opacity="1" d="M 873.257812 1241.15625 L 983.628906 1241.15625 L 983.628906 1622.230469 L 873.257812 1622.230469 L 873.257812 1241.15625 "/>
<path fill-rule="nonzero" fill="rgb(58.396912%, 84.375%, 100%)" fill-opacity="1" d="M 980.238281 1517.351562 L 1405.769531 1517.351562 L 1405.769531 1619.996094 L 980.238281 1619.996094 L 980.238281 1517.351562 "/>
<path fill-rule="nonzero" fill="rgb(58.396912%, 84.375%, 100%)" fill-opacity="1" d="M 2971.660156 1613.847656 L -40.796875 1613.847656 L -40.796875 1508.21875 L 2971.660156 1508.21875 L 2971.660156 1613.847656 "/>
<path fill-rule="nonzero" fill="rgb(58.396912%, 84.375%, 100%)" fill-opacity="1" d="M 2427.699219 1271.785156 L 2428.070312 1320.863281 L 2307.601562 1321.675781 L 2307.25 1272.617188 L 2427.699219 1271.785156 "/>
<path fill-rule="nonzero" fill="rgb(58.396912%, 84.375%, 100%)" fill-opacity="1" d="M 1024.941406 961.378906 L 1226.738281 961.378906 L 1226.738281 1538.152344 L 1024.941406 1538.152344 L 1024.941406 961.378906 "/>
<path fill-rule="nonzero" fill="rgb(58.396912%, 84.375%, 100%)" fill-opacity="1" d="M 1044.191406 928.070312 L 1207.511719 928.070312 L 1207.511719 1054.222656 L 1044.191406 1054.222656 L 1044.191406 928.070312 "/>
<path fill-rule="nonzero" fill="rgb(58.396912%, 84.375%, 100%)" fill-opacity="1" d="M 1054.820312 902.5 L 1196.621094 902.5 L 1196.621094 933.660156 L 1054.820312 933.660156 L 1054.820312 902.5 "/>
<path fill-rule="nonzero" fill="rgb(58.396912%, 84.375%, 100%)" fill-opacity="1" d="M 1119.878906 674.300781 L 1131.800781 674.300781 L 1131.800781 934.300781 L 1119.878906 934.300781 L 1119.878906 674.300781 "/>
<path fill-rule="nonzero" fill="rgb(58.396912%, 84.375%, 100%)" fill-opacity="1" d="M 1112.308594 886.601562 L 1139.140625 886.601562 L 1139.140625 902.71875 L 1112.308594 902.71875 L 1112.308594 886.601562 "/>
<path fill-rule="nonzero" fill="rgb(58.396912%, 84.375%, 100%)" fill-opacity="1" d="M 1116.601562 870.488281 L 1135.078125 870.488281 L 1135.078125 890.019531 L 1116.601562 890.019531 L 1116.601562 870.488281 "/>
<path fill-rule="nonzero" fill="rgb(58.396912%, 84.375%, 100%)" fill-opacity="1" d="M 1136.300781 1296.722656 L 1325.769531 1296.722656 L 1325.769531 1604.632812 L 1136.300781 1604.632812 L 1136.300781 1296.722656 "/>
<path fill-rule="nonzero" fill="rgb(58.396912%, 84.375%, 100%)" fill-opacity="1" d="M 1212.671875 1576.574219 L 665.835938 1576.574219 L 665.835938 1455.914062 L 1212.671875 1455.914062 L 1212.671875 1576.574219 "/>
<path fill-rule="evenodd" fill="rgb(41.50238%, 66.601562%, 82.03125%)" fill-opacity="1" d="M 1359.941406 1199.195312 L 662.683594 1199.195312 L 662.683594 2085.984375 L 1359.941406 2085.984375 L 1359.941406 1199.195312 "/>
<path fill-rule="evenodd" fill="rgb(41.50238%, 66.601562%, 82.03125%)" fill-opacity="1" d="M 1426.300781 1293.910156 L 1094.890625 1293.910156 L 1094.890625 1327.082031 L 1426.300781 1327.082031 L 1426.300781 1293.910156 "/>
<path fill-rule="evenodd" fill="rgb(41.50238%, 66.601562%, 82.03125%)" fill-opacity="1" d="M 1426.300781 1343.667969 L 1094.890625 1343.667969 L 1094.890625 1376.839844 L 1426.300781 1376.839844 L 1426.300781 1343.667969 "/>
<path fill-rule="evenodd" fill="rgb(41.50238%, 66.601562%, 82.03125%)" fill-opacity="1" d="M 1426.300781 1393.429688 L 1094.890625 1393.429688 L 1094.890625 1426.601562 L 1426.300781 1426.601562 L 1426.300781 1393.429688 "/>
<path fill-rule="evenodd" fill="rgb(41.50238%, 66.601562%, 82.03125%)" fill-opacity="1" d="M 1426.300781 1443.1875 L 1094.890625 1443.1875 L 1094.890625 1476.359375 L 1426.300781 1476.359375 L 1426.300781 1443.1875 "/>
<path fill-rule="evenodd" fill="rgb(41.50238%, 66.601562%, 82.03125%)" fill-opacity="1" d="M 1426.300781 1492.945312 L 1094.890625 1492.945312 L 1094.890625 1526.117188 L 1426.300781 1526.117188 L 1426.300781 1492.945312 "/>
<path fill-rule="evenodd" fill="rgb(41.50238%, 66.601562%, 82.03125%)" fill-opacity="1" d="M 1426.300781 1542.703125 L 1094.890625 1542.703125 L 1094.890625 1575.878906 L 1426.300781 1575.878906 L 1426.300781 1542.703125 "/>
<path fill-rule="evenodd" fill="rgb(41.50238%, 66.601562%, 82.03125%)" fill-opacity="1" d="M 686.707031 1475.46875 L 264.832031 1475.46875 L 264.832031 2093.105469 L 686.707031 2093.105469 L 686.707031 1475.46875 "/>
<path fill-rule="evenodd" fill="rgb(41.50238%, 66.601562%, 82.03125%)" fill-opacity="1" d="M 380.359375 1669.585938 L -41.515625 1669.585938 L -41.515625 2287.21875 L 380.359375 2287.21875 L 380.359375 1669.585938 "/>
<path fill-rule="evenodd" fill="rgb(41.50238%, 66.601562%, 82.03125%)" fill-opacity="1" d="M 169.425781 1584.792969 L 53.894531 1584.792969 L 53.894531 1894.835938 L 169.425781 1894.835938 L 169.425781 1584.792969 "/>
<path fill-rule="evenodd" fill="rgb(41.50238%, 66.601562%, 82.03125%)" fill-opacity="1" d="M 1422.148438 1199.195312 L 600.472656 1199.195312 L 805.890625 1004.972656 L 1216.730469 1004.972656 L 1422.148438 1199.195312 "/>
<path fill-rule="evenodd" fill="rgb(41.50238%, 66.601562%, 82.03125%)" fill-opacity="1" d="M 2442.089844 1542.703125 L 2366.570312 1542.703125 L 2366.570312 1642.59375 L 2442.089844 1642.59375 L 2442.089844 1542.703125 "/>
<path fill-rule="evenodd" fill="rgb(41.50238%, 66.601562%, 82.03125%)" fill-opacity="1" d="M 2535.578125 1394.625 L 2442.089844 1394.625 L 2442.089844 1642.59375 L 2535.578125 1642.59375 L 2535.578125 1394.625 "/>
<path fill-rule="evenodd" fill="rgb(41.50238%, 66.601562%, 82.03125%)" fill-opacity="1" d="M 2615.148438 1559.289062 L 2488.828125 1559.289062 L 2488.828125 1618.878906 L 2615.148438 1618.878906 L 2615.148438 1559.289062 "/>
<path fill-rule="evenodd" fill="rgb(41.50238%, 66.601562%, 82.03125%)" fill-opacity="1" d="M 2007.21875 1360.253906 L 1768.25 1360.253906 L 1827.988281 1293.910156 L 1947.480469 1293.910156 L 2007.21875 1360.253906 "/>
<path fill-rule="evenodd" fill="rgb(41.50238%, 66.601562%, 82.03125%)" fill-opacity="1" d="M 1574.53125 1584.792969 L 1352.671875 1584.792969 L 1352.671875 2093.105469 L 1574.53125 2093.105469 L 1574.53125 1584.792969 "/>
<path fill-rule="evenodd" fill="rgb(41.50238%, 66.601562%, 82.03125%)" fill-opacity="1" d="M 1768.25 1584.792969 L 1539.679688 1584.792969 L 1539.679688 2093.105469 L 1768.25 2093.105469 L 1768.25 1584.792969 "/>
<path fill-rule="evenodd" fill="rgb(41.50238%, 66.601562%, 82.03125%)" fill-opacity="1" d="M 2089.539062 1334.117188 L 1726.679688 1334.117188 L 1726.679688 2093.105469 L 2089.539062 2093.105469 L 2089.539062 1334.117188 "/>
<path fill-rule="evenodd" fill="rgb(41.50238%, 66.601562%, 82.03125%)" fill-opacity="1" d="M 2899.570312 1188.929688 L 2703.628906 1292.929688 L 2703.628906 1679.601562 L 2899.570312 1679.601562 L 2899.570312 1188.929688 "/>
<path fill-rule="evenodd" fill="rgb(41.50238%, 66.601562%, 82.03125%)" fill-opacity="1" d="M 2373.480469 1459.453125 L 2010.628906 1459.453125 L 2010.628906 2218.445312 L 2373.480469 2218.445312 L 2373.480469 1459.453125 "/>
<path fill-rule="evenodd" fill="rgb(41.50238%, 66.601562%, 82.03125%)" fill-opacity="1" d="M 2657.421875 1584.792969 L 2294.570312 1584.792969 L 2294.570312 2343.78125 L 2657.421875 2343.78125 L 2657.421875 1584.792969 "/>
<path fill-rule="evenodd" fill="rgb(41.50238%, 66.601562%, 82.03125%)" fill-opacity="1" d="M 3020.28125 1188.929688 L 2657.421875 1459.453125 L 2657.421875 2218.445312 L 3020.28125 2218.445312 L 3020.28125 1188.929688 "/>
<path fill-rule="evenodd" fill="rgb(41.50238%, 66.601562%, 82.03125%)" fill-opacity="1" d="M 688.535156 1459.773438 L 238.382812 1459.773438 L 238.382812 1492.945312 L 688.535156 1492.945312 L 688.535156 1459.773438 "/>
<path fill-rule="evenodd" fill="rgb(41.50238%, 66.601562%, 82.03125%)" fill-opacity="1" d="M 34.363281 1618.878906 L -6.996094 1618.878906 L -6.996094 1699.433594 L 34.363281 1699.433594 L 34.363281 1618.878906 "/>
<path fill-rule="evenodd" fill="rgb(41.50238%, 66.601562%, 82.03125%)" fill-opacity="1" d="M 157.070312 1559.289062 L 99.351562 1559.289062 L 99.351562 1618.878906 L 157.070312 1618.878906 L 157.070312 1559.289062 "/>
<path fill-rule="evenodd" fill="rgb(41.50238%, 66.601562%, 82.03125%)" fill-opacity="1" d="M 313.707031 1642.59375 L 194.453125 1642.59375 L 194.453125 1699.433594 L 313.707031 1699.433594 L 313.707031 1642.59375 "/>
<path fill-rule="evenodd" fill="rgb(41.50238%, 66.601562%, 82.03125%)" fill-opacity="1" d="M 2401.609375 1168.699219 L 2127.878906 1168.699219 L 2127.878906 1881.292969 L 2401.609375 1881.292969 L 2401.609375 1168.699219 "/>
<path fill-rule="evenodd" fill="rgb(41.50238%, 66.601562%, 82.03125%)" fill-opacity="1" d="M 2353.570312 1087.570312 L 2175.921875 1087.570312 L 2175.921875 1800.164062 L 2353.570312 1800.164062 L 2353.570312 1087.570312 "/>
<path fill-rule="evenodd" fill="rgb(41.50238%, 66.601562%, 82.03125%)" fill-opacity="1" d="M 2293.570312 992.320312 L 2235.921875 992.320312 L 2235.921875 1704.910156 L 2293.570312 1704.910156 L 2293.570312 992.320312 "/>
<path fill-rule="evenodd" fill="rgb(41.50238%, 66.601562%, 82.03125%)" fill-opacity="1" d="M 2274.101562 917.410156 L 2255.390625 917.410156 L 2255.390625 1629.996094 L 2274.101562 1629.996094 L 2274.101562 917.410156 "/>
<path fill-rule="evenodd" fill="rgb(41.50238%, 66.601562%, 82.03125%)" fill-opacity="1" d="M 2289.289062 956.050781 L 2240.199219 956.050781 L 2240.199219 1668.644531 L 2289.289062 1668.644531 L 2289.289062 956.050781 "/>
<path fill-rule="evenodd" fill="rgb(17.601013%, 49.705505%, 69.334412%)" fill-opacity="1" d="M 191.75 1283.792969 L -97.78125 1126.035156 L -97.78125 2198.9375 L 191.75 2198.9375 L 191.75 1283.792969 "/>
<path fill-rule="evenodd" fill="rgb(17.601013%, 49.705505%, 69.334412%)" fill-opacity="1" d="M 584.589844 1542.34375 L 483.800781 1473.503906 L 295.058594 1473.503906 L 295.058594 2254.210938 L 584.589844 2254.210938 L 584.589844 1542.34375 "/>
<path fill-rule="evenodd" fill="rgb(17.601013%, 49.705505%, 69.334412%)" fill-opacity="1" d="M 247.015625 1384.210938 L 27.195312 1384.210938 L 27.195312 2108.839844 L 247.015625 2108.839844 L 247.015625 1384.210938 "/>
<path fill-rule="evenodd" fill="rgb(17.601013%, 49.705505%, 69.334412%)" fill-opacity="1" d="M 712.496094 1792.109375 L 671.042969 1791.074219 L 671.289062 1747.851562 L 466.292969 1747.851562 L 466.292969 2110.164062 L 712.496094 2110.164062 L 712.496094 1792.109375 "/>
<path fill-rule="evenodd" fill="rgb(17.601013%, 49.705505%, 69.334412%)" fill-opacity="1" d="M 830.792969 1927.679688 L 584.589844 1927.679688 L 584.589844 2108.839844 L 830.792969 2108.839844 L 830.792969 1927.679688 "/>
<path fill-rule="evenodd" fill="rgb(17.601013%, 49.705505%, 69.334412%)" fill-opacity="1" d="M 961.449219 1642.261719 L 924.445312 1586.628906 L 796.484375 1586.628906 L 796.484375 2108.839844 L 961.449219 2108.839844 L 961.449219 1642.261719 "/>
<path fill-rule="evenodd" fill="rgb(17.601013%, 49.705505%, 69.334412%)" fill-opacity="1" d="M 651.847656 1649.175781 L 247.015625 1649.175781 L 247.015625 1681.644531 L 651.847656 1681.644531 L 651.847656 1649.175781 "/>
<path fill-rule="evenodd" fill="rgb(17.601013%, 49.705505%, 69.334412%)" fill-opacity="1" d="M 663.90625 1536.320312 L 259.074219 1536.320312 L 259.074219 1568.789062 L 663.90625 1568.789062 L 663.90625 1536.320312 "/>
<path fill-rule="evenodd" fill="rgb(17.601013%, 49.705505%, 69.334412%)" fill-opacity="1" d="M 420.410156 1390.109375 L 367.40625 1390.109375 L 367.40625 1479.402344 L 420.410156 1479.402344 L 420.410156 1390.109375 "/>
<path fill-rule="evenodd" fill="rgb(17.601013%, 49.705505%, 69.334412%)" fill-opacity="1" d="M 393.910156 1345.460938 L 386.820312 1345.460938 L 386.820312 1434.753906 L 393.910156 1434.753906 L 393.910156 1345.460938 "/>
<path fill-rule="evenodd" fill="rgb(17.601013%, 49.705505%, 69.334412%)" fill-opacity="1" d="M 439.824219 1662.488281 L 150.296875 1662.488281 L 150.296875 2230.574219 L 439.824219 2230.574219 L 439.824219 1662.488281 "/>
<path fill-rule="evenodd" fill="rgb(17.601013%, 49.705505%, 69.334412%)" fill-opacity="1" d="M 920.625 1604.652344 L 777.535156 1604.652344 L 777.535156 1620.488281 L 920.625 1620.488281 L 920.625 1604.652344 "/>
<path fill-rule="evenodd" fill="rgb(17.601013%, 49.705505%, 69.334412%)" fill-opacity="1" d="M 920.625 1635.722656 L 777.535156 1635.722656 L 777.535156 1651.558594 L 920.625 1651.558594 L 920.625 1635.722656 "/>
<path fill-rule="evenodd" fill="rgb(17.601013%, 49.705505%, 69.334412%)" fill-opacity="1" d="M 920.625 1666.792969 L 777.535156 1666.792969 L 777.535156 1682.628906 L 920.625 1682.628906 L 920.625 1666.792969 "/>
<path fill-rule="evenodd" fill="rgb(17.601013%, 49.705505%, 69.334412%)" fill-opacity="1" d="M 920.625 1697.863281 L 777.535156 1697.863281 L 777.535156 1713.699219 L 920.625 1713.699219 L 920.625 1697.863281 "/>
<path fill-rule="evenodd" fill="rgb(17.601013%, 49.705505%, 69.334412%)" fill-opacity="1" d="M 939.570312 1709.921875 L 796.484375 1709.921875 L 796.484375 1725.757812 L 939.570312 1725.757812 L 939.570312 1709.921875 "/>
<path fill-rule="evenodd" fill="rgb(17.601013%, 49.705505%, 69.334412%)" fill-opacity="1" d="M 920.625 1760.007812 L 777.535156 1760.007812 L 777.535156 1775.84375 L 920.625 1775.84375 L 920.625 1760.007812 "/>
<path fill-rule="evenodd" fill="rgb(17.601013%, 49.705505%, 69.334412%)" fill-opacity="1" d="M 903.628906 1574.863281 L 817.109375 1574.863281 L 817.109375 1604.652344 L 903.628906 1604.652344 L 903.628906 1574.863281 "/>
<path fill-rule="evenodd" fill="rgb(17.601013%, 49.705505%, 69.334412%)" fill-opacity="1" d="M 823.757812 1541.28125 L 810.460938 1541.28125 L 810.460938 1589.757812 L 823.757812 1589.757812 L 823.757812 1541.28125 "/>
<path fill-rule="evenodd" fill="rgb(17.601013%, 49.705505%, 69.334412%)" fill-opacity="1" d="M 1053.261719 1820.589844 L 920.625 1820.589844 L 920.625 2110.328125 L 1053.261719 2110.328125 L 1053.261719 1820.589844 "/>
<path fill-rule="evenodd" fill="rgb(17.601013%, 49.705505%, 69.334412%)" fill-opacity="1" d="M 1249.808594 1372.132812 L 986.945312 1372.132812 L 986.945312 2110.328125 L 1249.808594 2110.328125 L 1249.808594 1372.132812 "/>
<path fill-rule="evenodd" fill="rgb(17.601013%, 49.705505%, 69.334412%)" fill-opacity="1" d="M 1211.199219 1294.570312 L 1025.558594 1294.570312 L 1025.558594 1987.8125 L 1211.199219 1987.8125 L 1211.199219 1294.570312 "/>
<path fill-rule="evenodd" fill="rgb(17.601013%, 49.705505%, 69.334412%)" fill-opacity="1" d="M 1179.730469 1254.675781 L 1057.03125 1254.675781 L 1057.03125 1930.3125 L 1179.730469 1930.3125 L 1179.730469 1254.675781 "/>
<path fill-rule="evenodd" fill="rgb(17.601013%, 49.705505%, 69.334412%)" fill-opacity="1" d="M 1118.378906 1142.117188 L 1179.730469 1294.570312 L 1057.03125 1294.570312 L 1118.378906 1142.117188 "/>
<path fill-rule="evenodd" fill="rgb(17.601013%, 49.705505%, 69.334412%)" fill-opacity="1" d="M 1401.960938 1516.652344 L 1590.238281 1516.652344 L 1543.171875 1638.921875 L 1449.03125 1638.921875 L 1401.960938 1516.652344 "/>
<path fill-rule="evenodd" fill="rgb(17.601013%, 49.705505%, 69.334412%)" fill-opacity="1" d="M 1600.929688 1577.394531 L 1384.238281 1577.394531 L 1384.238281 2086.859375 L 1600.929688 2086.859375 L 1600.929688 1577.394531 "/>
<path fill-rule="evenodd" fill="rgb(17.601013%, 49.705505%, 69.334412%)" fill-opacity="1" d="M 1463.789062 1965.460938 L 1179.730469 1965.460938 L 1179.730469 2086.859375 L 1463.789062 2086.859375 L 1463.789062 1965.460938 "/>
<path fill-rule="evenodd" fill="rgb(17.601013%, 49.705505%, 69.334412%)" fill-opacity="1" d="M 1398.441406 1868.398438 L 1143.441406 1868.398438 L 1143.441406 1989.800781 L 1398.441406 1989.800781 L 1398.441406 1868.398438 "/>
<path fill-rule="evenodd" fill="rgb(17.601013%, 49.705505%, 69.334412%)" fill-opacity="1" d="M 1321.761719 1771.425781 L 1092.839844 1771.425781 L 1092.839844 1892.828125 L 1321.761719 1892.828125 L 1321.761719 1771.425781 "/>
<path fill-rule="evenodd" fill="rgb(17.601013%, 49.705505%, 69.334412%)" fill-opacity="1" d="M 1492.589844 1807.699219 L 1263.671875 1807.699219 L 1263.671875 1929.101562 L 1492.589844 1929.101562 L 1492.589844 1807.699219 "/>
<path fill-rule="evenodd" fill="rgb(17.601013%, 49.705505%, 69.334412%)" fill-opacity="1" d="M 1697.46875 1771.425781 L 1559.449219 1771.425781 L 1559.449219 2086.859375 L 1697.46875 2086.859375 L 1697.46875 1771.425781 "/>
<path fill-rule="evenodd" fill="rgb(17.601013%, 49.705505%, 69.334412%)" fill-opacity="1" d="M 1767.109375 1868.398438 L 1660.449219 1868.398438 L 1660.449219 2086.859375 L 1767.109375 2086.859375 L 1767.109375 1868.398438 "/>
<path fill-rule="evenodd" fill="rgb(17.601013%, 49.705505%, 69.334412%)" fill-opacity="1" d="M 1891.039062 1457.320312 L 1735.128906 1457.320312 L 1735.128906 2086.859375 L 1891.039062 2086.859375 L 1891.039062 1457.320312 "/>
<path fill-rule="evenodd" fill="rgb(17.601013%, 49.705505%, 69.334412%)" fill-opacity="1" d="M 1891.039062 1437.433594 L 1767.109375 1437.433594 L 1767.109375 1482.785156 L 1891.039062 1482.785156 L 1891.039062 1437.433594 "/>
<path fill-rule="evenodd" fill="rgb(17.601013%, 49.705505%, 69.334412%)" fill-opacity="1" d="M 1918.171875 1409.101562 L 1863.898438 1409.101562 L 1863.898438 1511.113281 L 1918.171875 1511.113281 L 1918.171875 1409.101562 "/>
<path fill-rule="evenodd" fill="rgb(17.601013%, 49.705505%, 69.334412%)" fill-opacity="1" d="M 1625.5 1565.480469 L 1366.710938 1565.480469 L 1366.710938 1579.105469 L 1625.5 1579.105469 L 1625.5 1565.480469 "/>
<path fill-rule="evenodd" fill="rgb(17.601013%, 49.705505%, 69.334412%)" fill-opacity="1" d="M 1601.921875 1542.234375 L 1390.289062 1542.234375 L 1390.289062 1565.480469 L 1601.921875 1565.480469 L 1601.921875 1542.234375 "/>
<path fill-rule="evenodd" fill="rgb(17.601013%, 49.705505%, 69.334412%)" fill-opacity="1" d="M 110.121094 1144.734375 L 35.628906 1093.546875 L 35.628906 1284.289062 L 110.121094 1284.289062 L 110.121094 1144.734375 "/>
<path fill-rule="evenodd" fill="rgb(17.601013%, 49.705505%, 69.334412%)" fill-opacity="1" d="M 137.441406 1201.007812 L 8.308594 1149.820312 L 8.308594 1340.566406 L 137.441406 1340.566406 L 137.441406 1201.007812 "/>
<path fill-rule="evenodd" fill="rgb(17.601013%, 49.705505%, 69.334412%)" fill-opacity="1" d="M 2951.28125 1927.679688 L 3197.480469 1927.679688 L 3197.480469 2108.839844 L 2951.28125 2108.839844 L 2951.28125 1927.679688 "/>
<path fill-rule="evenodd" fill="rgb(17.601013%, 49.705505%, 69.334412%)" fill-opacity="1" d="M 2820.621094 1642.261719 L 2857.628906 1586.628906 L 2985.589844 1586.628906 L 2985.589844 2108.839844 L 2820.621094 2108.839844 L 2820.621094 1642.261719 "/>
<path fill-rule="evenodd" fill="rgb(17.601013%, 49.705505%, 69.334412%)" fill-opacity="1" d="M 2861.449219 1604.652344 L 3004.539062 1604.652344 L 3004.539062 1620.488281 L 2861.449219 1620.488281 L 2861.449219 1604.652344 "/>
<path fill-rule="evenodd" fill="rgb(17.601013%, 49.705505%, 69.334412%)" fill-opacity="1" d="M 2861.449219 1635.722656 L 3004.539062 1635.722656 L 3004.539062 1651.558594 L 2861.449219 1651.558594 L 2861.449219 1635.722656 "/>
<path fill-rule="evenodd" fill="rgb(17.601013%, 49.705505%, 69.334412%)" fill-opacity="1" d="M 2861.449219 1666.792969 L 3004.539062 1666.792969 L 3004.539062 1682.628906 L 2861.449219 1682.628906 L 2861.449219 1666.792969 "/>
<path fill-rule="evenodd" fill="rgb(17.601013%, 49.705505%, 69.334412%)" fill-opacity="1" d="M 2861.449219 1697.863281 L 3004.539062 1697.863281 L 3004.539062 1713.699219 L 2861.449219 1713.699219 L 2861.449219 1697.863281 "/>
<path fill-rule="evenodd" fill="rgb(17.601013%, 49.705505%, 69.334412%)" fill-opacity="1" d="M 2842.5 1709.921875 L 2985.589844 1709.921875 L 2985.589844 1725.757812 L 2842.5 1725.757812 L 2842.5 1709.921875 "/>
<path fill-rule="evenodd" fill="rgb(17.601013%, 49.705505%, 69.334412%)" fill-opacity="1" d="M 2861.449219 1760.007812 L 3004.539062 1760.007812 L 3004.539062 1775.84375 L 2861.449219 1775.84375 L 2861.449219 1760.007812 "/>
<path fill-rule="evenodd" fill="rgb(17.601013%, 49.705505%, 69.334412%)" fill-opacity="1" d="M 2878.441406 1574.863281 L 2964.960938 1574.863281 L 2964.960938 1604.652344 L 2878.441406 1604.652344 L 2878.441406 1574.863281 "/>
<path fill-rule="evenodd" fill="rgb(17.601013%, 49.705505%, 69.334412%)" fill-opacity="1" d="M 2958.308594 1541.28125 L 2971.609375 1541.28125 L 2971.609375 1589.757812 L 2958.308594 1589.757812 L 2958.308594 1541.28125 "/>
<path fill-rule="evenodd" fill="rgb(17.601013%, 49.705505%, 69.334412%)" fill-opacity="1" d="M 2728.808594 1820.589844 L 2861.449219 1820.589844 L 2861.449219 2110.328125 L 2728.808594 2110.328125 L 2728.808594 1820.589844 "/>
<path fill-rule="evenodd" fill="rgb(17.601013%, 49.705505%, 69.334412%)" fill-opacity="1" d="M 2532.261719 1372.132812 L 2795.128906 1372.132812 L 2795.128906 2110.328125 L 2532.261719 2110.328125 L 2532.261719 1372.132812 "/>
<path fill-rule="evenodd" fill="rgb(17.601013%, 49.705505%, 69.334412%)" fill-opacity="1" d="M 2570.871094 1294.570312 L 2756.511719 1294.570312 L 2756.511719 1987.8125 L 2570.871094 1987.8125 L 2570.871094 1294.570312 "/>
<path fill-rule="evenodd" fill="rgb(17.601013%, 49.705505%, 69.334412%)" fill-opacity="1" d="M 2602.339844 1200.449219 L 2725.039062 1248.710938 L 2725.039062 1929.625 L 2602.339844 1929.625 L 2602.339844 1200.449219 "/>
<path fill-rule="evenodd" fill="rgb(17.601013%, 49.705505%, 69.334412%)" fill-opacity="1" d="M 2380.109375 1516.652344 L 2191.820312 1516.652344 L 2238.890625 1638.921875 L 2333.039062 1638.921875 L 2380.109375 1516.652344 "/>
<path fill-rule="evenodd" fill="rgb(17.601013%, 49.705505%, 69.334412%)" fill-opacity="1" d="M 2181.140625 1577.394531 L 2397.828125 1577.394531 L 2397.828125 2086.859375 L 2181.140625 2086.859375 L 2181.140625 1577.394531 "/>
<path fill-rule="evenodd" fill="rgb(17.601013%, 49.705505%, 69.334412%)" fill-opacity="1" d="M 2318.28125 1965.460938 L 2602.339844 1965.460938 L 2602.339844 2086.859375 L 2318.28125 2086.859375 L 2318.28125 1965.460938 "/>
<path fill-rule="evenodd" fill="rgb(17.601013%, 49.705505%, 69.334412%)" fill-opacity="1" d="M 2383.621094 1868.398438 L 2638.621094 1868.398438 L 2638.621094 1989.800781 L 2383.621094 1989.800781 L 2383.621094 1868.398438 "/>
<path fill-rule="evenodd" fill="rgb(17.601013%, 49.705505%, 69.334412%)" fill-opacity="1" d="M 2460.308594 1771.425781 L 2689.230469 1771.425781 L 2689.230469 1892.828125 L 2460.308594 1892.828125 L 2460.308594 1771.425781 "/>
<path fill-rule="evenodd" fill="rgb(17.601013%, 49.705505%, 69.334412%)" fill-opacity="1" d="M 2289.480469 1807.699219 L 2518.398438 1807.699219 L 2518.398438 1929.101562 L 2289.480469 1929.101562 L 2289.480469 1807.699219 "/>
<path fill-rule="evenodd" fill="rgb(17.601013%, 49.705505%, 69.334412%)" fill-opacity="1" d="M 2084.601562 1771.425781 L 2222.621094 1771.425781 L 2222.621094 2086.859375 L 2084.601562 2086.859375 L 2084.601562 1771.425781 "/>
<path fill-rule="evenodd" fill="rgb(17.601013%, 49.705505%, 69.334412%)" fill-opacity="1" d="M 2014.960938 1868.398438 L 2121.621094 1868.398438 L 2121.621094 2086.859375 L 2014.960938 2086.859375 L 2014.960938 1868.398438 "/>
<path fill-rule="evenodd" fill="rgb(17.601013%, 49.705505%, 69.334412%)" fill-opacity="1" d="M 1891.039062 1457.320312 L 2046.941406 1457.320312 L 2046.941406 2086.859375 L 1891.039062 2086.859375 L 1891.039062 1457.320312 "/>
<path fill-rule="evenodd" fill="rgb(17.601013%, 49.705505%, 69.334412%)" fill-opacity="1" d="M 1891.039062 1437.433594 L 2014.960938 1437.433594 L 2014.960938 1482.785156 L 1891.039062 1482.785156 L 1891.039062 1437.433594 "/>
<path fill-rule="evenodd" fill="rgb(17.601013%, 49.705505%, 69.334412%)" fill-opacity="1" d="M 2156.570312 1565.480469 L 2415.359375 1565.480469 L 2415.359375 1579.105469 L 2156.570312 1579.105469 L 2156.570312 1565.480469 "/>
<path fill-rule="evenodd" fill="rgb(17.601013%, 49.705505%, 69.334412%)" fill-opacity="1" d="M 2180.148438 1542.234375 L 2391.78125 1542.234375 L 2391.78125 1565.480469 L 2180.148438 1565.480469 L 2180.148438 1542.234375 "/>
<path fill-rule="evenodd" fill="rgb(17.601013%, 49.705505%, 69.334412%)" fill-opacity="1" d="M 2765.421875 1288.46875 L 2561.960938 1288.46875 L 2561.960938 1299.289062 L 2765.421875 1299.289062 L 2765.421875 1288.46875 "/>
</svg>
